<svg xmlns="http://www.w3.org/2000/svg" width="31.171" height="25.372" viewBox="0 0 31.171 25.372">
  <g id="Group_64718" data-name="Group 64718" transform="translate(0 0)">
    <g id="Group_346" data-name="Group 346">
      <path id="Path_13151" data-name="Path 13151" d="M820.085,644.622h-14.5c-3.409,0-5.312-.512-6.568-1.768s-1.768-3.159-1.768-6.568v-.725a1.087,1.087,0,0,1,1.087-1.087,2.537,2.537,0,1,0,0-5.074,1.087,1.087,0,0,1-1.087-1.087v-.725c0-3.409.512-5.312,1.768-6.568s3.159-1.768,6.568-1.768h14.5c3.409,0,5.312.512,6.568,1.768s1.768,3.159,1.768,6.568v1.45a1.088,1.088,0,0,1-1.087,1.087,2.537,2.537,0,0,0,0,5.074,1.087,1.087,0,0,1,1.087,1.087c0,3.409-.512,5.312-1.768,6.568S823.494,644.622,820.085,644.622Zm-20.659-8.1c.019,2.584.361,4.025,1.131,4.795.793.793,2.3,1.131,5.03,1.131h14.5c2.733,0,4.237-.338,5.031-1.131.695-.7,1.041-1.937,1.115-4.073a4.713,4.713,0,0,1,.016-9.167v-.489c0-2.733-.338-4.237-1.131-5.03s-2.3-1.131-5.031-1.131h-14.5c-2.733,0-4.237.338-5.03,1.131-.77.77-1.112,2.21-1.131,4.795a4.713,4.713,0,0,1,0,9.17Z" transform="translate(-797.25 -619.25)" fill="#2b2a29"/>
      <path id="Path_13152" data-name="Path 13152" d="M805.338,634.874a1.087,1.087,0,0,1-.769-1.856l8.7-8.7a1.087,1.087,0,1,1,1.538,1.538l-8.7,8.7A1.084,1.084,0,0,1,805.338,634.874Z" transform="translate(-794.101 -617.113)" fill="#2b2a29"/>
      <path id="Path_13153" data-name="Path 13153" d="M811.456,632.65h-.011a1.45,1.45,0,0,1,0-2.9h.011a1.45,1.45,0,1,1,0,2.9Z" transform="translate(-791.517 -614.527)" fill="#2b2a29"/>
      <path id="Path_13154" data-name="Path 13154" d="M805.456,627.15h-.012a1.45,1.45,0,0,1,0-2.9h.012a1.45,1.45,0,1,1,0,2.9Z" transform="translate(-794.216 -617.001)" fill="#2b2a29"/>
    </g>
  </g>
</svg>
