<svg id="Group_64589" data-name="Group 64589" xmlns="http://www.w3.org/2000/svg" width="35.291" height="35.988" viewBox="0 0 35.291 35.988">
  <path id="Path_57327" data-name="Path 57327" d="M694.409-644.766a.733.733,0,0,1-.328-.078.735.735,0,0,1-.329-.987,1.489,1.489,0,0,0-.192-1.156,1.442,1.442,0,0,0-1.376-.452c-2.335.18-3.722-.564-5.821-1.689-.4-.214-.812-.435-1.273-.673-2.353-1.216-4.363,1.043-4.448,1.139a.736.736,0,0,1-1.036.073.734.734,0,0,1-.076-1.034,6.751,6.751,0,0,1,1.79-1.389,4.612,4.612,0,0,1,4.445-.095c.471.243.888.467,1.292.684,2,1.074,3.107,1.664,5.014,1.518a2.773,2.773,0,0,1,2.724,1.121,2.845,2.845,0,0,1,.272,2.611A.735.735,0,0,1,694.409-644.766Z" transform="translate(-675.893 675.7)" fill="#2b2a29"/>
  <path id="Path_57328" data-name="Path 57328" d="M690.155-640.742q-.154,0-.306-.005a16.978,16.978,0,0,1-5.921-1.434,11.156,11.156,0,0,0-4.1-1.042.735.735,0,0,1-.735-.735.735.735,0,0,1,.735-.735,12.432,12.432,0,0,1,4.638,1.142,15.543,15.543,0,0,0,5.437,1.335c4.233.139,10.282-3.158,11.2-3.843.236-.177.458-.321.655-.448.7-.453.729-.471.578-.981a.576.576,0,0,0-.471-.458,1.337,1.337,0,0,0-.447-.015,42.541,42.541,0,0,1-7.942,2.781,14.665,14.665,0,0,1-6.811-.311.735.735,0,0,1-.47-.928.735.735,0,0,1,.926-.47h0a13.407,13.407,0,0,0,6.065.268,42.452,42.452,0,0,0,7.7-2.712l.07-.033.075-.018a2.225,2.225,0,0,1,2.717,1.478,2.072,2.072,0,0,1-1.19,2.634c-.185.119-.376.242-.57.389C700.975-644.132,694.806-640.742,690.155-640.742Z" transform="translate(-676.017 676.729)" fill="#2b2a29"/>
  <path id="Path_57336" data-name="Path 57336" d="M1.47,1.47v8.823h1.47V1.47H1.47M1.47,0h1.47a1.47,1.47,0,0,1,1.47,1.47v8.823a1.47,1.47,0,0,1-1.47,1.47H1.47A1.47,1.47,0,0,1,0,10.293V1.47A1.47,1.47,0,0,1,1.47,0Z" transform="translate(0 23.527)" fill="#2b2a29"/>
  <path id="Path_57335" data-name="Path 57335" d="M1.47,1.47V8.823h1.47V1.47H1.47M1.47,0h1.47a1.47,1.47,0,0,1,1.47,1.47V8.823a1.47,1.47,0,0,1-1.47,1.47H1.47A1.47,1.47,0,0,1,0,8.823V1.47A1.47,1.47,0,0,1,1.47,0Z" transform="translate(30.88)" fill="#2b2a29"/>
  <path id="Path_57329" data-name="Path 57329" d="M696.7-646.551a.735.735,0,0,1-.735-.735v-6.532l.012-.044a.265.265,0,0,0-.031-.164c-.037-.04-.2-.109-.563-.086-1.619.105-10.728.006-11.115,0l-.047,0a.757.757,0,0,0-.465.122c-.018.017-.074.07-.074.264v3.289a.735.735,0,0,1-.735.735.735.735,0,0,1-.735-.735v-3.289a1.762,1.762,0,0,1,.548-1.346,2.213,2.213,0,0,1,1.542-.509c.46.005,9.454.1,10.985,0a2.045,2.045,0,0,1,1.766.586,1.717,1.717,0,0,1,.382,1.319v6.388A.736.736,0,0,1,696.7-646.551Z" transform="translate(-674.084 673.402)" fill="#2b2a29"/>
  <path id="Path_57330" data-name="Path 57330" d="M690.2-650.694h-3.545a.735.735,0,0,1-.735-.735v-3.955h1.47v3.22h2.075v-3.22h1.47v3.955A.735.735,0,0,1,690.2-650.694Z" transform="translate(-672.802 673.935)" fill="#2b2a29"/>
  <path id="Path_57331" data-name="Path 57331" d="M687.5-662.111a.732.732,0,0,1-.429-.139.735.735,0,0,1-.167-1.026c2.609-3.622,5.17-3.879,5.278-3.888l.062,0h9.994a.735.735,0,0,1,.735.735.735.735,0,0,1-.735.735h-9.946c-.234.038-2.145.434-4.195,3.279A.734.734,0,0,1,687.5-662.111Z" transform="translate(-670.937 668.392)" fill="#2b2a29"/>
  <path id="Path_57332" data-name="Path 57332" d="M692.239-656.9a2.246,2.246,0,0,1-1.918-1.082c-.983-1.475.312-3.106,1.258-3.861l1.365-1.365h-5.483a.735.735,0,0,1-.735-.735.735.735,0,0,1,.735-.735h7.258a.735.735,0,0,1,.679.454.735.735,0,0,1-.159.8l-2.651,2.651a.716.716,0,0,1-.067.06c-.311.245-1.392,1.293-.977,1.916a.764.764,0,0,0,.759.425,1.257,1.257,0,0,0,.39-.107l2.631-2.753a.735.735,0,0,1,.521-.227.736.736,0,0,1,.527.212,4.3,4.3,0,0,0,2.386,1.239,4.086,4.086,0,0,0,2.312-1.228.735.735,0,0,1,1.04-.017.735.735,0,0,1,.017,1.04,5.446,5.446,0,0,1-3.369,1.676,4.991,4.991,0,0,1-2.854-1.174l-2.231,2.335a.732.732,0,0,1-.145.117A2.509,2.509,0,0,1,692.239-656.9Z" transform="translate(-670.954 669.563)" fill="#2b2a29"/>
  <path id="Path_57333" data-name="Path 57333" d="M4.165-7.313a.31.31,0,0,1,.217.082.272.272,0,0,1,.09.21.281.281,0,0,1-.09.217.31.31,0,0,1-.217.082h-.45a1.414,1.414,0,0,1-.4.9,1.654,1.654,0,0,1-.919.446.991.991,0,0,1,.364.187,2.4,2.4,0,0,1,.356.367L3.9-3.811a.427.427,0,0,1,.1.277.38.38,0,0,1-.142.3.479.479,0,0,1-.322.124.477.477,0,0,1-.39-.2L1.96-4.861A1.3,1.3,0,0,0,1.619-5.2.812.812,0,0,0,1.2-5.3H.565Q.108-5.3.108-5.67t.457-.375H1.78q.862,0,.99-.675H.415A.31.31,0,0,1,.2-6.8a.281.281,0,0,1-.09-.217A.272.272,0,0,1,.2-7.23a.31.31,0,0,1,.217-.082H2.748q-.172-.555-.967-.555H.415A.31.31,0,0,1,.2-7.95a.272.272,0,0,1-.09-.21A.281.281,0,0,1,.2-8.378.31.31,0,0,1,.415-8.46H4.165a.31.31,0,0,1,.217.082.281.281,0,0,1,.09.217.272.272,0,0,1-.09.21.31.31,0,0,1-.217.082H3.4a1.125,1.125,0,0,1,.277.555Z" transform="translate(9.859 16.248)" fill="#2b2a29"/>
  <path id="Path_57334" data-name="Path 57334" d="M676.3-653.4H655.125a.735.735,0,0,1-.735-.735v-9.806a.735.735,0,0,1,.735-.735h7.5a.735.735,0,0,1,.735.735.735.735,0,0,1-.735.735h-6.763v8.336h19.7v-2.885a.735.735,0,0,1,.735-.735.735.735,0,0,1,.735.735v3.62A.735.735,0,0,1,676.3-653.4Z" transform="translate(-647.935 669.563)" fill="#2b2a29"/>
</svg>
