<svg xmlns="http://www.w3.org/2000/svg" width="32.137" height="32.012" viewBox="0 0 32.137 32.012">
  <g id="Group_41247" data-name="Group 41247" transform="translate(1.006 1)">
    <g id="Group_39051" data-name="Group 39051">
      <path id="Path_56512" data-name="Path 56512" d="M244.083,451.468H229.988a1.769,1.769,0,0,1-1.544-1.095l-6.208-17.364c-.885-2.489.15-3.254,2.279-1.724l5.848,4.184a1.58,1.58,0,0,0,2.5-.765l2.639-7.032c.84-2.249,2.234-2.249,3.074,0l2.639,7.032a1.569,1.569,0,0,0,2.489.765l5.488-3.914c2.339-1.68,3.464-.825,2.5,1.889L245.642,450.4A1.831,1.831,0,0,1,244.083,451.468Z" transform="translate(-221.919 -425.985)" fill="#fff" stroke="#2b2a29" stroke-linecap="round" stroke-linejoin="round" stroke-width="2"/>
      <path id="Path_56513" data-name="Path 56513" d="M226.5,446h16.494" transform="translate(-219.631 -415.988)" fill="none" stroke="#2b2a29" stroke-linecap="round" stroke-linejoin="round" stroke-width="2"/>
      <path id="Path_56514" data-name="Path 56514" d="M229.5,438H237" transform="translate(-218.131 -419.985)" fill="none" stroke="#2b2a29" stroke-linecap="round" stroke-linejoin="round" stroke-width="2"/>
    </g>
  </g>
</svg>
